<?xml version="1.0" standalone="no"?><!DOCTYPE svg PUBLIC "-//W3C//DTD SVG 1.1//EN" "http://www.w3.org/Graphics/SVG/1.1/DTD/svg11.dtd"><svg t="1681709322264" class="icon" viewBox="0 0 1024 1024" version="1.1" xmlns="http://www.w3.org/2000/svg" p-id="1550" xmlns:xlink="http://www.w3.org/1999/xlink" width="200" height="200"><path d="M483.48000031 940.28l-148.04000062-148.39999969H112.08000031A79.96000031 79.96000031 0 0 1 32 711.8L32.40000031 152.04000031C32.40000031 107.72 68 72.00000031 112.47999969 72.00000031h799.48000031c44.23999969 0 80.08000031 35.71999969 80.04 80.07999938l-0.40000031 559.8c0 44.20000031-35.83999969 79.99999969-80.04 80.00000062h-222.91999969l-148.63999969 148.39999969a39.96 39.96 0 0 1-56.52 0z m428.16-228.48L912.00000031 152.04000031s-799.60000031-0.12-799.60000031 0.03999938c0 0-0.36 559.75999969-0.28000031 559.76000062H351.99999969c10.60000031 0 20.80000031 4.2 28.28000062 11.71999969l131.55999938 131.83999969 132-131.88a39.96 39.96 0 0 1 28.28000062-11.67999938h239.52zM291.99999969 512a60 60 0 1 1 0-120 60 60 0 0 1 0 120z m220.00000031 0a60 60 0 1 1 0-120 60 60 0 0 1 0 120z m220.00000031 0a60 60 0 1 1 0-120 60 60 0 0 1 0 120z" fill="#515151" p-id="1551"></path></svg>