<?xml version="1.0" standalone="no"?><!DOCTYPE svg PUBLIC "-//W3C//DTD SVG 1.1//EN" "http://www.w3.org/Graphics/SVG/1.1/DTD/svg11.dtd"><svg t="1681709308736" class="icon" viewBox="0 0 1024 1024" version="1.1" xmlns="http://www.w3.org/2000/svg" p-id="1266" xmlns:xlink="http://www.w3.org/1999/xlink" width="200" height="200"><path d="M640.36964094 433.32092563c43.48510406 0 78.74000344 35.25489938 78.74000344 78.74000437s-35.25489938 78.74000344-78.74000344 78.74000344-78.74000344-35.25489938-78.74000438-78.74000344 35.25489938-78.74000344 78.74000438-78.74000437z m-262.46667938-1e-8c43.48510406 0 78.74000344 35.25489938 78.74000344 78.74000438s-35.25489938 78.74000344-78.74000344 78.74000344-78.74000344-35.25489938-78.74000343-78.74000344 35.25489938-78.74000344 78.74000343-78.74000438zM32.09373781 512.06093c0 265.06322438 214.87584563 479.93907 479.93907094 479.93907s479.93907-214.87584563 479.93907-479.93907-214.87584563-479.93907-479.93907-479.93907094-479.93907 214.87584563-479.93907094 479.93907094zM663.79479125 155.93114187c46.42848094 19.63813219 88.13256094 47.76893531 123.97801125 83.60501063 35.83607531 35.83607531 63.96687937 77.54953031 83.60501063 123.97801031 20.31304594 48.02202844 30.61486312 99.08117156 30.61486312 151.76198344s-10.30181719 103.739955-30.61486312 151.76198344c-19.63813219 46.42848094-47.75956219 88.13256094-83.60501063 123.97801125-35.83607531 35.83607531-77.54953031 63.96687937-123.97801125 83.60501062-48.02202844 20.31304594-99.08117156 30.61486312-151.7619825 30.61486313s-103.739955-10.30181719-151.76198344-30.61486313c-46.42848094-19.63813219-88.13256094-47.75956219-123.97801125-83.60501062-35.83607531-35.83607531-63.96687937-77.54953031-83.60501062-123.97801125-20.31304594-48.02202844-30.61486312-99.08117156-30.61486313-151.76198344s10.30181719-103.739955 30.61486313-151.76198344c19.63813219-46.42848094 47.76893531-88.13256094 83.60501062-123.97801031 35.83607531-35.83607531 77.54953031-63.96687937 123.97801125-83.60501063 48.02202844-20.31304594 99.08117156-30.61486312 151.76198344-30.61486406 52.68081188 0.00937406 103.739955 10.30181719 151.7619825 30.61486406z" fill="#515151" p-id="1267"></path></svg>